<svg width="20" height="20" viewBox="0 0 20 20" fill="none" xmlns="http://www.w3.org/2000/svg">
<g clip-path="url(#clip0_9191_459355)">
<path d="M7.49935 4.16406H5.83268C5.39065 4.16406 4.96673 4.33966 4.65417 4.65222C4.34161 4.96478 4.16602 5.3887 4.16602 5.83073V15.8307C4.16602 16.2728 4.34161 16.6967 4.65417 17.0092C4.96673 17.3218 5.39065 17.4974 5.83268 17.4974H14.166C14.608 17.4974 15.032 17.3218 15.3445 17.0092C15.6571 16.6967 15.8327 16.2728 15.8327 15.8307V5.83073C15.8327 5.3887 15.6571 4.96478 15.3445 4.65222C15.032 4.33966 14.608 4.16406 14.166 4.16406H12.4993" stroke="white" stroke-width="2" stroke-linecap="round" stroke-linejoin="round"/>
<path d="M7.5 4.16667C7.5 3.72464 7.6756 3.30072 7.98816 2.98816C8.30072 2.67559 8.72464 2.5 9.16667 2.5H10.8333C11.2754 2.5 11.6993 2.67559 12.0118 2.98816C12.3244 3.30072 12.5 3.72464 12.5 4.16667C12.5 4.60869 12.3244 5.03262 12.0118 5.34518C11.6993 5.65774 11.2754 5.83333 10.8333 5.83333H9.16667C8.72464 5.83333 8.30072 5.65774 7.98816 5.34518C7.6756 5.03262 7.5 4.60869 7.5 4.16667Z" stroke="white" stroke-width="2" stroke-linecap="round" stroke-linejoin="round"/>
<path d="M11.6673 9.16406H9.58398C9.25246 9.16406 8.93452 9.29576 8.7001 9.53018C8.46568 9.7646 8.33398 10.0825 8.33398 10.4141C8.33398 10.7456 8.46568 11.0635 8.7001 11.2979C8.93452 11.5324 9.25246 11.6641 9.58398 11.6641H10.4173C10.7488 11.6641 11.0668 11.7958 11.3012 12.0302C11.5356 12.2646 11.6673 12.5825 11.6673 12.9141C11.6673 13.2456 11.5356 13.5635 11.3012 13.7979C11.0668 14.0324 10.7488 14.1641 10.4173 14.1641H8.33398" stroke="#F26522" stroke-width="2" stroke-linecap="round" stroke-linejoin="round"/>
<path d="M10 14.1693V15.0026M10 8.33594V9.16927" stroke="#F26522" stroke-width="2" stroke-linecap="round" stroke-linejoin="round"/>
</g>
<defs>
<clipPath id="clip0_9191_459355">
<rect width="20" height="20" fill="white"/>
</clipPath>
</defs>
</svg>
