<svg width="20" height="20" viewBox="0 0 20 20" fill="none" xmlns="http://www.w3.org/2000/svg">
<g clip-path="url(#clip0_9191_459351)">
<path d="M6.66602 5.83333C6.66602 6.71739 7.0172 7.56523 7.64233 8.19036C8.26745 8.81548 9.11529 9.16667 9.99935 9.16667C10.8834 9.16667 11.7313 8.81548 12.3564 8.19036C12.9815 7.56523 13.3327 6.71739 13.3327 5.83333C13.3327 4.94928 12.9815 4.10143 12.3564 3.47631C11.7313 2.85119 10.8834 2.5 9.99935 2.5C9.11529 2.5 8.26745 2.85119 7.64233 3.47631C7.0172 4.10143 6.66602 4.94928 6.66602 5.83333Z" stroke="white" stroke-width="2" stroke-linecap="round" stroke-linejoin="round"/>
<path d="M5 17.5V15.8333C5 14.9493 5.35119 14.1014 5.97631 13.4763C6.60143 12.8512 7.44928 12.5 8.33333 12.5H11.25" stroke="white" stroke-width="2" stroke-linecap="round" stroke-linejoin="round"/>
<path d="M14.166 14.1641V18.3307" stroke="#F26522" stroke-width="2" stroke-linecap="round" stroke-linejoin="round"/>
<path d="M17.5 14.1641V18.3307" stroke="#F26522" stroke-width="2" stroke-linecap="round" stroke-linejoin="round"/>
</g>
<defs>
<clipPath id="clip0_9191_459351">
<rect width="20" height="20" fill="white"/>
</clipPath>
</defs>
</svg>
