<svg width="24" height="24" viewBox="0 0 24 24" fill="none" xmlns="http://www.w3.org/2000/svg">
<path d="M10.3603 1.0398C8.46187 1.23668 6.44625 2.06636 4.92281 3.28043C4.46812 3.64605 3.68531 4.42418 3.30562 4.9023C-0.12094 9.16324 0.286872 15.3414 4.23843 19.1195C5.80875 20.6195 7.83843 21.6085 9.98531 21.9132C10.6369 22.007 11.5791 22.0585 11.9634 22.0164L12.2775 21.9835L12.1228 21.7398C11.0916 20.1226 10.7775 18.1632 11.2509 16.2835C11.8697 13.832 13.8291 11.8726 16.2806 11.2539C18.1603 10.7804 20.1197 11.0945 21.7369 12.1257L21.9806 12.2804L22.0134 11.9664C22.0556 11.5773 22.0041 10.6351 21.9103 9.98824C21.5353 7.4148 20.2322 5.08511 18.2353 3.41636C16.0744 1.61168 13.2197 0.749174 10.3603 1.0398ZM11.8978 4.12418C11.9916 4.17574 12.1275 4.27418 12.1978 4.34918C12.4791 4.64449 12.4697 4.50855 12.4697 8.26324C12.4697 11.507 12.465 11.7086 12.3806 11.8867C12.3337 11.9898 12.2353 12.1304 12.1603 12.2007C11.865 12.4773 11.8978 12.4726 9.24468 12.4726H6.81656L6.5775 12.3554C6.4275 12.2804 6.29156 12.1632 6.20718 12.0414C6.09 11.8726 6.07125 11.807 6.07125 11.507C6.07125 11.207 6.08531 11.1461 6.21187 10.9632C6.29156 10.8554 6.45093 10.7101 6.56343 10.6445L6.77437 10.5273L8.64 10.5132L10.5009 10.4992L10.5056 7.79449C10.5056 6.30855 10.5244 4.98668 10.5431 4.8648C10.6462 4.23199 11.3541 3.84761 11.8978 4.12418Z" fill="white"/>
<path d="M17.1094 13.0547C15.1781 13.4203 13.6594 14.8172 13.1437 16.7156C13.0266 17.1328 13.0125 17.2594 13.0125 17.9766C13.0078 18.6703 13.0219 18.8297 13.1203 19.1906C13.3687 20.1469 13.7672 20.85 14.4375 21.5203C15.1359 22.2234 15.8484 22.6313 16.8047 22.8797C17.1609 22.9734 17.3437 22.9875 18 22.9922C18.6656 22.9922 18.8344 22.9781 19.1953 22.8797C21.1828 22.3594 22.6031 20.8313 22.95 18.8297C23.0484 18.2766 23.0156 17.3438 22.8797 16.8047C22.6547 15.8906 22.2281 15.1453 21.5437 14.4563C20.8547 13.7719 20.1141 13.3453 19.1953 13.1203C18.6984 12.9938 17.6062 12.9609 17.1094 13.0547ZM18.4031 14.6203C18.6375 14.7281 18.8625 14.9953 18.9375 15.2531C18.975 15.3844 18.9844 15.8859 18.975 16.8516L18.9609 18.2578L18.8297 18.4781C18.4547 19.1203 17.5453 19.1203 17.1703 18.4781L17.0391 18.2578L17.025 16.8516C17.0156 15.8859 17.025 15.3844 17.0625 15.2531C17.1797 14.8359 17.5781 14.5313 18 14.5313C18.1172 14.5313 18.2953 14.5734 18.4031 14.6203ZM18.5484 19.7156C18.9094 20.0109 19.0453 20.3578 18.9375 20.7422C18.6984 21.5906 17.5547 21.7266 17.1562 20.9531C16.9547 20.5641 17.0016 20.1844 17.2781 19.8797C17.5172 19.6125 17.6859 19.5422 18.0562 19.5563C18.3234 19.5703 18.3937 19.5938 18.5484 19.7156Z" fill="white"/>
</svg>
