<svg width="24" height="24" viewBox="0 0 24 24" fill="none" xmlns="http://www.w3.org/2000/svg">
<path d="M11.0857 1.55469C9.12165 1.94375 7.60758 3.36406 7.09196 5.28594C6.98415 5.69844 6.97009 5.82969 6.97009 6.54219C6.97009 7.25469 6.97946 7.38594 7.09196 7.80781C7.16227 8.06563 7.32165 8.4875 7.44821 8.74531C7.65915 9.17656 8.18415 9.93125 8.43258 10.1469C8.54508 10.25 8.55915 10.3156 8.4654 10.3156C8.32008 10.3156 7.49509 10.6156 7.0404 10.8313C4.46227 12.0641 2.77477 14.5859 2.64352 17.4172C2.6154 17.9469 2.62008 17.9938 2.7279 18.1859C2.93415 18.5656 2.93415 18.5656 4.7904 18.5656H6.42165V17.8719C6.42165 17.0938 6.49665 16.5688 6.7029 15.9453C7.00759 15.0078 7.49977 14.2063 8.2029 13.4984C9.05602 12.6406 9.98415 12.1203 11.2263 11.8063C11.8029 11.6609 13.2232 11.6516 13.8045 11.7875C16.017 12.3031 17.6951 13.8078 18.3982 15.9031C18.6232 16.5828 18.7123 17.2016 18.6935 17.9563L18.6795 18.5703L19.8045 18.5563C21.0841 18.5422 21.0982 18.5375 21.2857 18.1484C21.3795 17.9609 21.3841 17.9 21.3607 17.3938C21.1873 14.2344 19.0966 11.4828 16.1107 10.4844C15.8341 10.3906 15.5763 10.3156 15.5388 10.3156C15.431 10.3156 15.4498 10.2781 15.6841 10.0156C16.2607 9.38281 16.6966 8.58594 16.9076 7.79844C17.0154 7.39063 17.0295 7.25469 17.0295 6.54219C17.0295 5.82969 17.0154 5.69844 16.9076 5.28594C16.4295 3.49531 15.0748 2.13125 13.2888 1.63906C12.9841 1.55938 12.7591 1.53594 12.117 1.52188C11.681 1.51719 11.217 1.53125 11.0857 1.55469Z" fill="white"/>
<path d="M11.5734 13.2211C10.0828 13.5352 8.7375 14.6602 8.20312 16.0383C7.92656 16.7555 7.89844 16.9242 7.89844 17.8148C7.89844 18.7945 7.97344 19.1555 8.34375 19.9008C9 21.232 10.2797 22.193 11.7375 22.4508C12.0984 22.5164 13.0266 22.5164 13.3875 22.4508C15.6328 22.057 17.25 20.1117 17.25 17.8148C17.25 16.1555 16.4297 14.6836 15.0234 13.807C14.0531 13.2023 12.7219 12.9773 11.5734 13.2211ZM14.4094 16.2352C14.7234 16.4133 14.8594 16.8445 14.7 17.1492C14.6625 17.2195 14.1516 17.7539 13.5609 18.3352C12.3938 19.493 12.3 19.5586 11.9672 19.4508C11.7047 19.3664 10.4203 18.0914 10.3547 17.8523C10.2328 17.3883 10.6313 16.9195 11.1094 16.9664C11.3297 16.9898 11.4422 17.0602 11.775 17.3836L12.1453 17.7398L12.9047 16.9852C13.3219 16.5727 13.7063 16.207 13.7578 16.1789C13.9125 16.0945 14.2125 16.1227 14.4094 16.2352Z" fill="white"/>
</svg>
