<svg width="24" height="24" viewBox="0 0 24 24" fill="none" xmlns="http://www.w3.org/2000/svg">
<g clip-path="url(#clip0_9123_437968)">
<path d="M7.61719 0.126562C7.13437 0.295312 6.825 0.496875 6.47812 0.867188C6.22031 1.13906 5.85937 1.74844 5.85937 1.90312C5.85937 1.95469 5.73281 1.96875 5.23594 1.96875C4.68281 1.96875 4.58906 1.98281 4.40625 2.07187C4.0125 2.27812 4.00781 2.2875 4.00781 3.57656C4.00781 4.70625 4.00781 4.71094 4.13437 4.97812C4.29844 5.33437 4.57969 5.625 4.93125 5.81719L5.22656 5.97656H8.48437H11.7422L12.0094 5.85C12.3609 5.68594 12.675 5.3625 12.8578 4.97812L13.0078 4.66406L13.0219 3.63281C13.0359 2.625 13.0359 2.59687 12.9281 2.39531C12.8484 2.25 12.75 2.15156 12.6094 2.07656C12.4266 1.97812 12.3422 1.96875 11.7844 1.96875H11.1656L11.1094 1.79062C10.8891 1.10625 10.2328 0.445312 9.47812 0.154687C9.21562 0.0515623 9.07031 0.0281248 8.57812 0.0140624C8.03437 0 7.96406 0.00468731 7.61719 0.126562Z" fill="white"/>
<path d="M2.02991 3.07028C1.13928 3.31403 0.440844 3.96559 0.131469 4.84684L0.000219138 5.22653V11.9531C0.000219138 19.3593 -0.0185309 18.8906 0.290844 19.5328C0.501782 19.9687 1.03147 20.4984 1.46741 20.7093C2.08616 21.0093 1.96428 21 5.84084 21H9.36584L9.17834 20.5406C8.84553 19.7203 8.62991 18.8062 8.55491 17.8922L8.52209 17.4843H6.08459C3.43147 17.4843 3.47834 17.489 3.21584 17.2078C3.10803 17.0953 3.07522 17.0109 3.05647 16.8047C3.03772 16.5843 3.05178 16.5187 3.15491 16.364C3.37991 16.0218 3.30022 16.0312 6.10334 16.0312H8.61116L8.67209 15.689C8.72366 15.3843 8.94397 14.5359 9.02366 14.3343C9.05178 14.2593 8.87834 14.2547 6.31897 14.2406C3.66116 14.2265 3.58147 14.2218 3.42209 14.1281C2.92053 13.8328 2.92053 13.1672 3.42209 12.8718C3.58147 12.7734 3.65647 12.7734 6.68459 12.7593L9.78772 12.7453L9.96116 12.4781C10.2237 12.0797 10.6971 11.489 10.9408 11.25C11.058 11.1375 11.1565 11.025 11.1565 11.0062C11.1565 10.9875 9.45959 10.9687 7.38303 10.9687C3.71741 10.9687 3.60022 10.964 3.42678 10.875C3.15491 10.739 3.03303 10.5093 3.05647 10.1906C3.07522 9.98903 3.10803 9.90466 3.21584 9.79216C3.48772 9.50153 3.21584 9.51559 8.42834 9.51559H13.2049L13.5518 9.35622C14.494 8.92497 15.4268 8.67184 16.444 8.56872L17.0158 8.51247V6.93278C17.0158 5.41872 17.0112 5.33903 16.908 4.97809C16.5658 3.80153 15.5205 2.99997 14.3252 2.99997H13.969V3.78278C13.969 4.31716 13.9455 4.66403 13.8987 4.87028C13.6643 5.86403 12.7971 6.70309 11.7893 6.91403C11.3065 7.01716 5.70959 7.01716 5.23147 6.91403C4.40178 6.73591 3.68928 6.19684 3.32366 5.46091C3.09866 4.99684 3.04709 4.72966 3.01428 3.82966L2.98616 2.99997L2.62991 3.00466C2.43303 3.00466 2.16584 3.03747 2.02991 3.07028Z" fill="white"/>
<path d="M16.1252 10.5682C14.7142 10.8166 13.4674 11.4682 12.4689 12.4713C11.4189 13.5213 10.7392 14.876 10.547 16.301C10.472 16.8541 10.5095 18.176 10.6174 18.6541C11.208 21.3072 13.2377 23.3182 15.9049 23.8947C16.4533 24.0166 18.047 24.0119 18.6002 23.8947C21.2814 23.3182 23.3158 21.2838 23.8924 18.6025C24.0142 18.0447 24.0142 16.4603 23.8924 15.9025C23.6064 14.576 22.9736 13.4088 22.0314 12.4713C21.0986 11.5385 19.9455 10.9057 18.6564 10.6197C18.183 10.5119 16.6174 10.4838 16.1252 10.5682ZM17.6533 13.1228C18.0283 13.2916 18.2814 13.7557 18.2111 14.1541C18.1736 14.3838 18.0377 14.5947 17.7986 14.7869C17.6299 14.9228 17.5877 14.9322 17.2502 14.9322C16.9127 14.9322 16.8705 14.9228 16.7017 14.7869C16.6033 14.7072 16.4767 14.576 16.4205 14.4916C16.0174 13.901 16.5095 13.0338 17.2502 13.0338C17.3674 13.0338 17.5455 13.076 17.6533 13.1228ZM17.747 15.6822C17.8736 15.7572 18.0002 15.8885 18.0799 16.0244L18.2111 16.2447L18.2252 18.1525C18.2345 19.4322 18.2205 20.126 18.1877 20.2525C18.1267 20.4822 17.8736 20.7728 17.6533 20.8807C17.447 20.9791 17.0533 20.9791 16.847 20.8807C16.6267 20.7728 16.3736 20.4822 16.3127 20.2525C16.2799 20.126 16.2658 19.4322 16.2752 18.1525L16.2892 16.2447L16.4158 16.0244C16.7017 15.5463 17.2642 15.401 17.747 15.6822Z" fill="white"/>
</g>
<defs>
<clipPath id="clip0_9123_437968">
<rect width="24" height="24" fill="white"/>
</clipPath>
</defs>
</svg>
