<svg width="24" height="24" viewBox="0 0 24 24" fill="none" xmlns="http://www.w3.org/2000/svg">
<g clip-path="url(#clip0_9123_437881)">
<path d="M8.20313 1.47617C6.76875 1.77617 5.56406 2.70898 4.92188 4.01211C4.55156 4.75742 4.47656 5.11836 4.47656 6.09805C4.47656 7.07773 4.55156 7.43867 4.92188 8.18398C5.5875 9.53867 6.88594 10.5043 8.35781 10.7387C8.87344 10.823 9.90469 10.7762 10.3828 10.6496C11.6391 10.3121 12.7734 9.36992 13.3594 8.18398C13.7297 7.43867 13.8047 7.07773 13.8047 6.09805C13.8047 5.11836 13.7297 4.75742 13.3594 4.01211C12.7734 2.82617 11.6391 1.88867 10.3828 1.54648C9.90469 1.41992 8.67656 1.37773 8.20313 1.47617Z" fill="white"/>
<path d="M17.3574 10.4109C17.0246 10.5375 16.6309 10.9078 16.4668 11.2406C16.3449 11.4937 16.3355 11.55 16.3215 12.3094L16.3027 13.1156L15.8293 13.1344C15.4027 13.1484 15.3137 13.1719 15.023 13.3125C14.5918 13.5187 14.2215 13.8891 14.0152 14.3203C13.8652 14.6203 13.8512 14.6906 13.8371 15.1734L13.8184 15.7031H18.9137H24.009L23.9902 15.1734C23.9762 14.6906 23.9621 14.6203 23.8121 14.3203C23.6059 13.8891 23.2355 13.5187 22.8043 13.3125C22.5137 13.1719 22.4246 13.1484 21.998 13.1344L21.5152 13.1156V12.4219C21.5152 11.4797 21.4355 11.2125 21.0324 10.8047C20.5637 10.3312 20.4793 10.3125 18.8996 10.3172C17.7137 10.3172 17.5777 10.3266 17.3574 10.4109ZM19.9215 11.7797C20.0387 11.8359 20.0387 11.85 20.0527 12.4828L20.0668 13.125H18.9137H17.7605L17.7746 12.4828C17.7887 11.85 17.7887 11.8359 17.9059 11.7797C18.0699 11.6953 19.7574 11.6953 19.9215 11.7797Z" fill="white"/>
<path d="M4.45836 12.2891C2.36304 12.7298 0.731794 14.2907 0.150544 16.4094L0.0286694 16.8548L0.0099194 19.4938C-0.0041431 22.0766 0.000544396 22.1376 0.0896069 22.2876C0.295857 22.6204 0.0192943 22.6016 4.65992 22.5876L8.82242 22.5735L7.76773 21.2563C7.19117 20.5344 6.69429 19.8969 6.66148 19.8407C6.57242 19.6766 6.59586 19.4329 6.94742 16.8313L7.28492 14.3235L7.15367 13.5266C7.07867 13.0907 6.99898 12.6079 6.97554 12.4579L6.92867 12.1907L5.91148 12.1954C5.09117 12.1954 4.81461 12.2141 4.45836 12.2891Z" fill="white"/>
<path d="M8.32031 12.2906C8.34844 12.4172 8.53125 13.5187 8.53125 13.5656C8.53125 13.5797 8.80781 13.5938 9.14063 13.5938C9.47813 13.5938 9.75 13.5797 9.75 13.5656C9.75 13.5187 9.93281 12.4172 9.96094 12.2906L9.98438 12.1875H9.14063H8.29688L8.32031 12.2906Z" fill="white"/>
<path d="M11.3059 12.4544C11.2824 12.6044 11.2027 13.0872 11.1277 13.5232L10.9965 14.32L11.334 16.8278C11.6855 19.4247 11.709 19.6732 11.6199 19.8372C11.5871 19.8935 11.0902 20.531 10.5137 21.2528L9.45898 22.57L11.273 22.5841C12.2762 22.5888 13.1012 22.5841 13.1152 22.5747C13.1246 22.5607 13.0871 22.4857 13.0309 22.4107C12.8762 22.1903 12.6277 21.6232 12.534 21.2575C12.4496 20.9528 12.4449 20.7091 12.4449 17.8825C12.4449 15.1169 12.4543 14.8028 12.5293 14.4794C12.6934 13.7716 13.1574 13.0216 13.7012 12.5716C13.8371 12.4638 13.9449 12.3607 13.9449 12.3419C13.9449 12.2528 13.2652 12.1919 12.3465 12.1872H11.3527L11.3059 12.4544Z" fill="white"/>
<path d="M8.55572 15.0562C8.54635 15.0891 8.41979 16.0125 8.27447 17.1094C8.13385 18.2062 8.0026 19.1578 7.98854 19.2234C7.96979 19.3219 8.06354 19.4625 8.53697 20.0531C8.84635 20.4469 9.11822 20.7656 9.14166 20.7656C9.17447 20.7656 10.1917 19.5281 10.276 19.3828C10.2901 19.3547 10.1729 18.3656 10.0182 17.1797L9.7276 15.0234L9.15104 15.0094C8.7151 15 8.57447 15.0094 8.55572 15.0562Z" fill="white"/>
<path d="M13.8383 19.0875L13.8523 21.0703L14.0117 21.3984C14.2227 21.8297 14.593 22.2 15.0242 22.4109L15.3523 22.5703H18.9148H22.4773L22.8055 22.4109C23.2367 22.2 23.607 21.8297 23.818 21.3984L23.9773 21.0703L23.9914 19.0875L24.0055 17.1094H18.9148H13.8242L13.8383 19.0875Z" fill="white"/>
</g>
<defs>
<clipPath id="clip0_9123_437881">
<rect width="24" height="24" fill="white"/>
</clipPath>
</defs>
</svg>
