<svg width="24" height="24" viewBox="0 0 24 24" fill="none" xmlns="http://www.w3.org/2000/svg">
<path d="M7.21875 1.27031C7.15313 1.29375 7.05 1.36406 6.99375 1.42031C6.77813 1.61719 6.75 1.73906 6.75 2.39062V3H5.61563C4.08281 3 3.70781 3.08906 2.87344 3.6375C2.01563 4.20469 1.41563 5.16562 1.26562 6.21094C1.24219 6.38906 1.21875 7.09219 1.21875 7.76719V9H12H22.7812V7.78594C22.7812 7.11562 22.7578 6.4125 22.7344 6.21562C22.5797 5.11406 21.9563 4.15781 21 3.55312C20.3625 3.14531 19.7953 3 18.8813 3H18.2391L18.225 4.43906L18.2109 5.88281L18.0609 6.19687C17.7234 6.91406 16.9359 7.33594 16.2 7.2L16.0313 7.16719V6.65625V6.15L16.2141 6.22031C16.575 6.36094 17.0063 6.19687 17.1797 5.85469C17.2406 5.74687 17.25 5.39062 17.25 3.73594C17.25 1.75312 17.25 1.74844 17.1469 1.59375C16.9641 1.32656 16.8094 1.24219 16.5 1.24219C16.1906 1.24219 16.0359 1.32656 15.8578 1.59375C15.7594 1.73437 15.75 1.8 15.75 2.37187V3H12.4969H9.23906L9.225 4.43906L9.21094 5.88281L9.06094 6.19687C8.72344 6.91406 7.93594 7.33594 7.2 7.2L7.03125 7.16719V6.65625V6.15L7.21406 6.22031C7.575 6.36094 8.00625 6.19687 8.17969 5.85469C8.24063 5.74687 8.25 5.39062 8.25 3.73594C8.25 1.75312 8.25 1.74844 8.14688 1.59375C8.08594 1.50937 7.98281 1.39687 7.9125 1.34531C7.76719 1.2375 7.39219 1.19531 7.21875 1.27031Z" fill="white"/>
<path d="M1.21875 14.7281C1.21875 17.2875 1.2375 19.0922 1.26562 19.2891C1.42031 20.3484 2.04844 21.3328 2.92969 21.9C3.35625 22.1719 3.6375 22.2984 4.10156 22.4109C4.45781 22.4953 4.69688 22.5 9.14063 22.5H13.8047L13.6406 22.3734C13.3125 22.1297 12.6141 21.3703 12.3609 20.9906C11.9062 20.3062 11.6344 19.6875 11.4375 18.8906C11.2922 18.3141 11.2547 17.1469 11.3672 16.4953C11.5875 15.1687 12.1406 14.1047 13.125 13.125C13.875 12.3703 14.6063 11.9109 15.5391 11.6016C16.6266 11.2359 17.9203 11.1891 19.0078 11.4656C20.3672 11.8172 21.6281 12.6516 22.4297 13.725C22.5844 13.9359 22.725 14.1047 22.7484 14.1094C22.7672 14.1094 22.7812 13.2984 22.7812 12.3047V10.5H12H1.21875V14.7281Z" fill="white"/>
<path d="M16.5701 12.3081C14.9341 12.6175 13.5091 13.6863 12.7591 15.1675C12.2435 16.1988 12.0935 17.666 12.3935 18.8238C12.5576 19.4566 12.9841 20.305 13.3826 20.8019C14.9482 22.7472 17.6763 23.3331 19.8935 22.1988C21.8248 21.2144 22.9638 19.1285 22.7435 16.9956C22.5466 15.1394 21.4966 13.6066 19.8513 12.7956C19.0545 12.4066 18.5482 12.28 17.6482 12.2566C17.156 12.2472 16.8326 12.2613 16.5701 12.3081ZM19.7482 15.5847C20.0951 15.73 20.2732 16.1097 20.1841 16.4894C20.1466 16.6394 17.5545 19.2738 17.3248 19.3956C17.231 19.4425 17.1091 19.4613 16.9451 19.4472C16.631 19.4191 16.5466 19.3535 15.5998 18.3925C15.0232 17.8019 14.8545 17.6003 14.8076 17.4503C14.7326 17.1878 14.8029 16.9535 15.0185 16.7425C15.1545 16.6113 15.2295 16.5785 15.4357 16.5597C15.7779 16.5316 15.8623 16.5878 16.4763 17.2019L16.9873 17.7222L18.0232 16.691C19.2138 15.5097 19.3591 15.416 19.7482 15.5847Z" fill="white"/>
</svg>
