<svg width="24" height="24" viewBox="0 0 24 24" fill="none" xmlns="http://www.w3.org/2000/svg">
<path d="M3.62734 2.01091C3.08359 2.11872 2.47891 2.55935 2.23516 3.01872C1.98203 3.49685 1.99609 3.05622 1.98203 10.2562C1.97266 14.3015 1.98203 17.0625 2.01016 17.2547C2.13203 18.1265 2.75078 18.7828 3.63203 18.9703C3.79609 19.0078 6.33672 19.0218 11.9992 19.0218C21.0086 19.0265 20.5258 19.0406 21.0227 18.7218C21.3086 18.539 21.6602 18.1687 21.7914 17.9109C22.0352 17.4328 22.0305 17.6297 22.0305 10.4953C22.0305 3.29529 22.0398 3.56716 21.7727 3.04216C21.5195 2.54529 20.9383 2.12341 20.3477 2.01091C20.043 1.95466 3.91797 1.95466 3.62734 2.01091ZM14.1977 5.77966C15.7445 6.17341 16.1102 6.2906 16.2648 6.45935C16.7102 6.93747 16.757 7.12966 16.6914 8.0906C16.6352 8.83122 16.5461 9.55779 16.457 9.93279C16.4336 10.05 16.4008 10.1953 16.3867 10.2609C16.2086 11.1562 15.7352 12.3468 15.2336 13.1672C14.6617 14.0953 13.7008 15.0047 12.8664 15.4125C12.1867 15.7453 12.032 15.7734 11.6758 15.6468C10.3398 15.1781 9.12578 13.9828 8.32422 12.3562C8.08984 11.8828 7.93516 11.489 7.82734 11.0812C7.80391 11.0015 7.75234 10.814 7.71016 10.6593C7.49922 9.88591 7.34453 8.84529 7.28828 7.82341C7.26016 7.34529 7.26953 7.25622 7.35859 7.01716C7.47109 6.71247 7.71953 6.42654 7.99609 6.28591C8.14609 6.21091 10.8555 5.49841 11.4836 5.37185C11.5492 5.35779 11.8211 5.3531 12.093 5.36247C12.5289 5.37185 12.7633 5.41872 14.1977 5.77966Z" fill="#03C95A"/>
<path d="M10.2797 7.18509L8.76562 7.56947V7.87416C8.76562 8.26322 8.88281 9.25697 8.97656 9.67884C9.35156 11.3757 9.91406 12.5101 10.8281 13.4054C11.2875 13.8554 11.8828 14.2304 12.0609 14.1835C12.3609 14.1085 13.1766 13.457 13.5938 12.9554C13.8844 12.6085 14.4328 11.6617 14.5453 11.3195C14.5594 11.2679 14.6063 11.1413 14.6484 11.0382C14.7375 10.8038 14.9766 9.93197 15.0234 9.67884C15.1359 9.04603 15.1875 8.63822 15.2156 8.10384L15.2484 7.56947L13.6828 7.18041C12.8203 6.96947 12.0422 6.79603 11.9531 6.79603C11.8641 6.80072 11.1094 6.97416 10.2797 7.18509Z" fill="#03C95A"/>
<path d="M6.72518 21.2875C6.12986 21.4984 6.06893 22.3609 6.63143 22.6562C6.81893 22.7547 6.85643 22.7547 11.9752 22.7641L17.1314 22.7734L17.3283 22.6703C17.5908 22.5344 17.7174 22.3609 17.7455 22.0891C17.7783 21.7984 17.6799 21.5594 17.4502 21.3859L17.2814 21.2547L12.0736 21.2453C8.51111 21.2406 6.82361 21.2547 6.72518 21.2875Z" fill="#03C95A"/>
</svg>
