<svg width="24" height="24" viewBox="0 0 24 24" fill="none" xmlns="http://www.w3.org/2000/svg">
<path d="M17.1618 1.96046C16.7681 3.09015 16.2852 3.72765 15.4696 4.18702C15.3524 4.25265 15.0149 4.39327 14.7196 4.50108C14.1571 4.70265 14.0446 4.76827 14.1009 4.85733C14.1196 4.88546 14.3727 4.99796 14.6681 5.10577C15.3243 5.34483 15.6712 5.52765 15.9852 5.79483C16.5337 6.26358 16.7962 6.67608 17.1337 7.58546C17.4009 8.3214 17.4384 8.3214 17.7196 7.54796C18.0056 6.76515 18.179 6.46983 18.629 6.01983C19.079 5.56983 19.3743 5.3964 20.1571 5.11046C20.9259 4.82921 20.9306 4.7964 20.204 4.52921C19.5431 4.28546 19.2806 4.15421 18.9056 3.86827C18.3665 3.46515 17.9915 2.8839 17.6727 1.95577C17.5415 1.57608 17.4993 1.50108 17.4196 1.50108C17.3352 1.50108 17.2931 1.57608 17.1618 1.96046Z" fill="#AB47BC"/>
<path d="M9.67057 5.49642C9.64245 5.52923 9.45963 6.01204 9.26276 6.56517C9.0612 7.11829 8.78932 7.78392 8.65807 8.04173C8.17526 8.97923 7.36901 9.88392 6.47838 10.4745C5.88307 10.873 5.51745 11.0417 4.31276 11.4777C3.30026 11.8433 3.15963 11.923 3.26276 12.0824C3.29557 12.1339 3.72213 12.312 4.31276 12.5277C5.51745 12.9636 5.88307 13.1324 6.47838 13.5308C7.36901 14.1214 8.17526 15.0261 8.65807 15.9636C8.78932 16.2214 9.0612 16.887 9.25807 17.4402C9.45963 17.9933 9.65182 18.4761 9.68463 18.5136C9.71745 18.5511 9.78776 18.5652 9.85807 18.5464C9.95651 18.523 10.0128 18.4058 10.3081 17.5714C10.4956 17.0464 10.744 16.423 10.8565 16.1792C11.4799 14.8527 12.5393 13.7699 13.8659 13.1042C14.0909 12.9917 14.6534 12.762 15.1174 12.598C16.4299 12.1245 16.369 12.1527 16.3503 11.9886C16.3362 11.8527 16.3221 11.8433 15.2815 11.4636C14.7003 11.2527 14.044 10.9902 13.8284 10.8777C12.5159 10.212 11.4753 9.14329 10.8565 7.82611C10.744 7.58236 10.5003 6.9636 10.3128 6.44798C10.1299 5.93235 9.95182 5.49642 9.9237 5.47767C9.83932 5.42142 9.72213 5.43548 9.67057 5.49642Z" fill="#AB47BC"/>
<path d="M17.3024 15.9469C17.2837 16.0078 17.1946 16.2422 17.1102 16.4766C16.8149 17.2922 16.5149 17.7563 15.9852 18.2063C15.6712 18.4734 15.3243 18.6563 14.6681 18.8953C14.3727 19.0031 14.1196 19.1156 14.1009 19.1438C14.0446 19.2328 14.1571 19.2984 14.7196 19.5C15.0149 19.6078 15.3524 19.7484 15.4696 19.8141C16.2852 20.2734 16.7681 20.9109 17.1618 22.0406C17.2931 22.425 17.3352 22.5 17.4196 22.5C17.4993 22.5 17.5415 22.425 17.6727 22.0453C17.9915 21.1172 18.3665 20.5359 18.9056 20.1328C19.2806 19.8469 19.5431 19.7156 20.204 19.4719C20.9306 19.2047 20.9259 19.1719 20.1571 18.8906C19.3602 18.6 19.079 18.4313 18.6102 17.9578C18.1509 17.4938 18.0149 17.2641 17.7196 16.4531C17.4993 15.8484 17.3915 15.7172 17.3024 15.9469Z" fill="#AB47BC"/>
</svg>
