<svg width="24" height="24" viewBox="0 0 24 24" fill="none" xmlns="http://www.w3.org/2000/svg">
<g clip-path="url(#clip0_9175_452725)">
<path d="M16.5143 0.0609398C16.308 0.173439 9.88145 5.88281 9.81583 6.00469C9.71739 6.19688 9.73145 6.6 9.84395 6.7875C9.99395 7.03125 10.1908 7.125 10.5611 7.125H10.8752V15.5625V24H16.8752H22.8752V15.5625V7.125H23.194C23.5596 7.125 23.7565 7.03125 23.9065 6.7875C24.019 6.6 24.033 6.19688 23.9346 6.00469C23.869 5.88281 17.4424 0.173439 17.2361 0.0609398C17.1799 0.0281258 17.0158 0.00468826 16.8752 0.00468826C16.7346 0.00468826 16.5705 0.0281258 16.5143 0.0609398ZM17.6252 8.64844V9.04688H17.8033C18.394 9.04688 19.1252 9.49219 19.5049 10.0828C19.6783 10.3547 19.8283 10.8094 19.8283 11.0672V11.25H19.1018H18.3752V11.1188C18.3752 10.9453 18.2205 10.7063 18.0377 10.5938C17.8971 10.5094 17.7986 10.5 16.8752 10.5C15.9518 10.5 15.8533 10.5094 15.7127 10.5938C15.258 10.8703 15.2533 11.625 15.7033 11.9016C15.8299 11.9766 15.9846 11.9906 16.9361 12.0141C17.883 12.0328 18.0611 12.0516 18.3002 12.1359C18.8252 12.3234 19.2893 12.7031 19.5565 13.1719C19.9221 13.8 19.9221 14.7 19.5565 15.3281C19.1955 15.9516 18.4268 16.4531 17.8268 16.4531H17.6252V16.8516V17.25H16.8752H16.1252V16.8516V16.4531H15.9424C15.6846 16.4531 15.2299 16.3031 14.958 16.1297C14.3674 15.75 13.9221 15.0188 13.9221 14.4281V14.25H14.6486H15.3752V14.3766C15.3752 14.5547 15.5299 14.7938 15.7127 14.9063C15.8533 14.9906 15.9518 15 16.8752 15C17.7986 15 17.8971 14.9906 18.0377 14.9063C18.4924 14.6297 18.4971 13.875 18.0471 13.5984C17.9205 13.5234 17.7658 13.5094 16.8377 13.4906C15.6565 13.4625 15.4033 13.4156 14.958 13.1297C13.7252 12.3375 13.5565 10.6359 14.6158 9.64688C15.0049 9.28125 15.5299 9.04688 15.9471 9.04688H16.1252V8.64844V8.25H16.8752H17.6252V8.64844Z" fill="#0C4B5E"/>
<path d="M5.9625 11.3437C5.87813 11.3953 5.77031 11.5031 5.71875 11.5875C5.625 11.7375 5.625 11.8359 5.625 17.8687V24H7.875H10.125V17.625V11.25H8.12344C6.20625 11.25 6.1125 11.2547 5.9625 11.3437Z" fill="#0C4B5E"/>
<path d="M0.7125 15.4688C0.628125 15.5203 0.520313 15.6281 0.46875 15.7125C0.379688 15.8625 0.375 15.9609 0.375 19.9312V24H2.625H4.875V19.6875V15.375H2.87344C0.95625 15.375 0.8625 15.3797 0.7125 15.4688Z" fill="#0C4B5E"/>
</g>
<defs>
<clipPath id="clip0_9175_452725">
<rect width="24" height="24" fill="white"/>
</clipPath>
</defs>
</svg>
