<svg width="24" height="24" viewBox="0 0 24 24" fill="none" xmlns="http://www.w3.org/2000/svg">
<g clip-path="url(#clip0_9175_452698)">
<path d="M13.8375 0.283968C13.7531 0.302719 13.5563 0.401156 13.3969 0.494906C12.9656 0.762094 12.7688 0.766781 12.3516 0.513656C12.075 0.344906 11.9766 0.312094 11.7188 0.293344C11.4563 0.279281 11.3906 0.293344 11.25 0.387094C11.1609 0.448031 11.025 0.588656 10.9453 0.701156C10.8141 0.883969 10.8047 0.930844 10.8047 1.28241L10.8094 1.66678L11.4234 3.06834C11.9203 4.21209 12.0563 4.47928 12.1453 4.51209C12.6938 4.71834 14.5406 4.76991 15.4594 4.60584C15.7547 4.55428 15.9984 4.50272 16.0031 4.49334C16.0594 4.41834 17.2172 1.67616 17.2547 1.52147C17.3203 1.25897 17.2406 0.860531 17.0719 0.644906C16.8844 0.401156 16.65 0.283968 16.35 0.283968C16.1344 0.283968 16.05 0.312094 15.7688 0.480844C15.4922 0.654281 15.4078 0.682406 15.1875 0.682406C14.9672 0.682406 14.8875 0.654281 14.6625 0.508969C14.4234 0.354281 14.325 0.312094 14.0625 0.260531C14.025 0.255844 13.9219 0.265219 13.8375 0.283968Z" fill="#F26522"/>
<path d="M11.2461 5.28281C9.63361 6.17813 7.99298 7.725 7.0461 9.24844C5.74767 11.3438 5.36798 13.6219 5.9586 15.7969C6.0336 16.0781 6.07579 16.1719 6.13673 16.1719C6.17892 16.1719 6.41329 16.1297 6.64767 16.0781C7.56642 15.8766 8.6586 15.8766 9.50704 16.0781C10.2102 16.2469 16.4633 18.0938 16.7211 18.2109C16.857 18.2719 17.0399 18.375 17.1242 18.4406C17.2133 18.5063 17.3024 18.5625 17.3258 18.5625C17.3492 18.5625 18.2633 18.3469 19.3508 18.0844L21.3383 17.6063L21.5633 17.1516C21.8539 16.5797 22.0883 15.9047 22.2289 15.2531C22.3227 14.8078 22.3367 14.6156 22.332 13.7578C22.332 12.6375 22.2664 12.2297 21.9336 11.2266C21.1742 8.93906 19.3836 6.81094 17.0633 5.4375L16.5242 5.11406L16.2008 5.20781C15.432 5.41875 14.2039 5.51719 13.3133 5.44219C12.7602 5.39531 11.8695 5.24063 11.6445 5.15625C11.5695 5.12813 11.4711 5.16094 11.2461 5.28281ZM14.2742 9.58594C14.382 9.68906 14.3914 9.73594 14.3914 10.1203V10.5375L14.7102 10.6359C15.2164 10.7859 15.6008 11.1094 15.7977 11.5359C15.957 11.8875 15.9102 12.1313 15.6664 12.2297C15.4555 12.3188 15.2961 12.2297 15.1789 11.9672C14.9633 11.4656 14.6024 11.2688 13.9742 11.3063C13.3695 11.3391 13.032 11.6203 13.032 12.0891C13.032 12.5953 13.318 12.8109 14.3445 13.0781C15.0477 13.2563 15.3711 13.4063 15.5961 13.6547C15.8586 13.95 15.9617 14.2172 15.957 14.625C15.957 15.0234 15.8586 15.2766 15.582 15.6C15.3992 15.8156 14.8836 16.0969 14.5836 16.1484L14.3914 16.1813V16.5984C14.3914 16.9828 14.382 17.0297 14.2742 17.1328C14.1195 17.2875 13.9461 17.2828 13.7774 17.1141C13.6461 16.9828 13.6414 16.9594 13.6414 16.5469C13.6414 16.1813 13.632 16.1203 13.5617 16.0969C13.5149 16.0828 13.3414 16.0078 13.1774 15.9281C12.793 15.7359 12.4367 15.3797 12.2117 14.9531C12.0524 14.6484 12.043 14.6063 12.0945 14.4797C12.1274 14.4 12.2164 14.3063 12.2914 14.2688C12.5117 14.1563 12.6711 14.25 12.8539 14.5875C13.0414 14.9391 13.3836 15.2484 13.6977 15.3563C14.0445 15.4688 14.5461 15.4313 14.8274 15.2672C15.357 14.9578 15.357 14.2313 14.8274 14.0016C14.7289 13.9594 14.368 13.8469 14.0211 13.7578C13.2945 13.5656 12.9992 13.425 12.6945 13.1156C11.907 12.3141 12.3102 10.9313 13.4211 10.6359L13.6414 10.575V10.1578C13.6414 9.75938 13.6461 9.73594 13.7774 9.60469C13.9461 9.43594 14.1195 9.43125 14.2742 9.58594Z" fill="#F26522"/>
<path d="M0.009375 19.6718L0.0234375 23.4593L1.99688 23.4733C3.62344 23.4827 3.97969 23.4733 4.02656 23.4218C4.06406 23.3702 4.07344 22.3624 4.06875 19.6343L4.05469 15.9124L2.025 15.8983L0 15.889L0.009375 19.6718ZM2.27344 16.4562C2.38594 16.4843 2.56406 16.5827 2.67188 16.6718C3.29531 17.2108 3.15469 18.139 2.39062 18.4577C2.1375 18.5608 1.69688 18.514 1.45781 18.3593C1.06406 18.0968 0.885938 17.5765 1.03125 17.1312C1.13438 16.8265 1.42969 16.5546 1.78125 16.4468C1.95 16.3952 2.04375 16.3999 2.27344 16.4562Z" fill="#F26522"/>
<path d="M1.8372 17.2329C1.71533 17.3173 1.69658 17.5798 1.80908 17.6923C1.89814 17.786 2.10908 17.7907 2.22627 17.7017C2.35283 17.6126 2.33877 17.3548 2.20752 17.2423C2.07627 17.1392 1.97314 17.1345 1.8372 17.2329Z" fill="#F26522"/>
<path d="M7.12969 16.7412C6.92813 16.774 6.0375 16.9756 4.93594 17.2287L4.82812 17.2521V19.5443V21.8365L4.98281 21.8881C5.13281 21.935 10.0641 23.3646 10.5469 23.5006C11.7047 23.8287 12.9516 23.81 14.0766 23.4537C14.4 23.3553 23.0063 19.6568 23.4234 19.4412C23.5922 19.3521 23.8922 19.024 23.9531 18.8646C23.9813 18.799 24 18.6537 24 18.5459C24 18.2975 23.8781 18.124 23.6391 18.0443C23.2781 17.9271 22.7812 18.0115 20.1656 18.6537C18.7922 18.9912 17.6625 19.2678 17.6578 19.2678C17.6531 19.2678 17.6484 19.399 17.6438 19.5631C17.6344 20.2475 17.1188 20.7912 16.3406 20.9553C16.1859 20.9881 15.9703 20.9975 15.8484 20.9787C15.6703 20.9553 12.8391 20.3506 9.72656 19.6709C8.90625 19.4928 8.8125 19.4412 8.8125 19.1506C8.8125 18.9818 8.98594 18.799 9.14531 18.799C9.1875 18.799 10.6781 19.1131 12.4547 19.4975C14.2266 19.8818 15.7688 20.21 15.8766 20.2287C16.3266 20.299 16.8281 20.0084 16.8984 19.6334C16.95 19.3709 16.7766 19.0615 16.5 18.9162C16.4062 18.8693 11.3344 17.36 9.75 16.91C9.03281 16.7037 7.82344 16.6287 7.12969 16.7412Z" fill="#F26522"/>
</g>
<defs>
<clipPath id="clip0_9175_452698">
<rect width="24" height="24" fill="white"/>
</clipPath>
</defs>
</svg>
